    <svg
      xmlns="http://www.w3.org/2000/svg"
      width="36"
      height="36"
      fill="none"
      viewBox="0 0 36 36"
    >
      <path
        fill="#7A00DA"
        d="M18 0C8.064 0 0 8.064 0 18s8.064 18 18 18h9v-3.6h-9c-7.812 0-14.4-6.588-14.4-14.4S10.188 3.6 18 3.6 32.4 10.188 32.4 18v2.574c0 1.422-1.278 2.826-2.7 2.826-1.422 0-2.7-1.404-2.7-2.826V18c0-4.968-4.032-9-9-9s-9 4.032-9 9 4.032 9 9 9a8.948 8.948 0 006.372-2.646C25.542 25.956 27.558 27 29.7 27c3.546 0 6.3-2.88 6.3-6.426V18c0-9.936-8.064-18-18-18zm0 23.4a5.393 5.393 0 01-5.4-5.4c0-2.988 2.412-5.4 5.4-5.4 2.988 0 5.4 2.412 5.4 5.4 0 2.988-2.412 5.4-5.4 5.4z"
      ></path>
    </svg>