<svg width="17" height="15" viewBox="0 0 17 15" fill="none" xmlns="http://www.w3.org/2000/svg">
<path d="M6.9002 6.70005C8.66751 6.70005 10.1002 5.26736 10.1002 3.50005C10.1002 1.73274 8.66751 0.300049 6.9002 0.300049C5.13287 0.300049 3.7002 1.73274 3.7002 3.50005C3.7002 5.26736 5.13287 6.70005 6.9002 6.70005Z" fill="#00CDDA"/>
<path d="M7.18 8.30813C4.996 8.22813 0.5 9.31613 0.5 11.5001V13.1001H8.132C6.156 10.8921 7.148 8.38813 7.18 8.30813Z" fill="#00CDDA"/>
<path fill-rule="evenodd" clip-rule="evenodd" d="M14.9 9.90001C14.9 10.492 14.732 11.044 14.444 11.516L16.5 13.572L15.372 14.7L13.316 12.644C12.844 12.924 12.292 13.1 11.7 13.1C9.932 13.1 8.5 11.668 8.5 9.90001C8.5 8.13201 9.932 6.70001 11.7 6.70001C13.468 6.70001 14.9 8.13201 14.9 9.90001ZM10.1 9.90001C10.1 10.78 10.82 11.5 11.7 11.5C12.58 11.5 13.3 10.78 13.3 9.90001C13.3 9.02001 12.58 8.30001 11.7 8.30001C10.82 8.30001 10.1 9.02001 10.1 9.90001Z" fill="#00CDDA"/>
</svg>
